<?xml version="1.0" standalone="no"?>
<svg xmlns="http://www.w3.org/2000/svg" viewBox="0 0 128.157 29" width="128.157" height="29"><g fill="#6590da" color="#6590da" transform="translate(0, 0) scale(0.659091)"><svg width="44.0" height="44.0" x="0.0" y="0.0" viewBox="0 0 44 44"><path fill="currentColor" fill-rule="nonzero" d="M23.77 32.44V14.72h19.49v28.35H.74V32.44h23.03zM.74.55h42.52v10.63H20.23V28.9H.74V.55z"></path></svg></g><line x1="41" y1="1" x2="41" y2="28" stroke="#0b005d" stroke-linecap="round"></line><path fill="#0b005d" fill-rule="nonzero" d="M0 15.88L0 0.21Q1.63 0 3.34 0L3.34 0Q6.53 0 8.19 1.49Q9.84 2.99 9.84 5.96L9.84 5.96Q9.84 8.63 8.03 10.17L8.03 10.17Q6.33 11.63 3.66 11.63L3.66 11.63Q3.35 11.63 2.99 11.59L2.99 11.59L2.99 15.88L0 15.88ZM3.69 2.82L3.69 2.82Q3.34 2.82 2.99 2.85L2.99 2.85L2.99 9.01Q3.36 9.06 3.90 9.06Q4.44 9.06 5.03 8.83Q5.61 8.60 6.01 8.19L6.01 8.19Q6.84 7.34 6.84 5.94L6.84 5.94Q6.84 2.82 3.69 2.82ZM14.48 12.50L13.38 15.97Q12.38 15.88 11.03 15.88L11.03 15.88L10.10 15.88L15.20 1.59Q15.54 0.63 15.54 0.47Q15.54 0.32 15.53 0.28L15.53 0.28L15.54 0.26Q16.30 0.29 17.16 0.29L17.16 0.29Q17.86 0.29 18.84 0.27L18.84 0.27L18.86 0.29Q18.83 0.34 18.83 0.42L18.83 0.42Q18.83 0.64 19.18 1.61L19.18 1.61L24.39 15.91Q24.15 15.90 23.84 15.90L23.84 15.90Q23.84 15.90 23.23 15.88L23.23 15.88Q22.93 15.88 22.70 15.88L22.70 15.88L20.88 15.88L19.78 12.50L14.48 12.50ZM15.38 9.69L18.87 9.69L17.10 4.24L15.38 9.69ZM34.03 15.97L31.31 9.82Q30.96 9.84 30.56 9.84Q30.16 9.84 29.38 9.79L29.38 9.79L29.38 15.88L26.27 15.88L26.27 0.21Q27.91 0 30.30 0L30.30 0Q33.56 0 35.16 1.20Q36.76 2.40 36.76 4.91L36.76 4.91Q36.76 6.86 35.30 8.24L35.30 8.24Q34.82 8.68 34.20 9.01L34.20 9.01L36.59 14.05Q37.29 15.61 37.66 15.90L37.66 15.90L37.61 15.96Q36.47 15.77 34.03 15.97L34.03 15.97ZM30.53 2.77L30.53 2.77Q29.93 2.77 29.38 2.82L29.38 2.82L29.38 7.30Q29.95 7.38 30.73 7.38Q31.50 7.38 32.03 7.25Q32.55 7.11 32.94 6.83L32.94 6.83Q33.77 6.21 33.77 4.97Q33.77 3.73 32.91 3.22L32.91 3.22Q32.10 2.77 30.53 2.77ZM43.31 13.07L48.09 13.07Q48.82 13.07 49.10 12.93L49.10 12.93L49.15 12.94L49.03 15.88L40.25 15.88L40.25 0.21Q40.57 0.23 40.96 0.25L40.96 0.25L41.78 0.27Q42.60 0.29 43.56 0.29L43.56 0.29Q46.24 0.29 48.87 0.20L48.87 0.20Q48.74 1.23 48.74 2.95L48.74 2.95Q48.74 3.14 48.76 3.23L48.76 3.23L48.74 3.27Q48.13 3.09 47.00 3.09L47.00 3.09L43.31 3.09L43.31 6.08L46.09 6.08Q47.38 6.08 47.64 6.01L47.64 6.01L47.67 8.91Q47.11 8.85 46.22 8.85L46.22 8.85L43.31 8.85L43.31 13.07ZM56.07 16.17L56.07 16.17Q54.18 16.17 52.50 15.87L52.50 15.87L52.50 0.19Q54.05 0 56.09 0Q58.14 0 59.79 0.56Q61.45 1.11 62.57 2.14L62.57 2.14Q64.82 4.21 64.82 7.92L64.82 7.92Q64.82 12.08 62.31 14.24L62.31 14.24Q60.06 16.17 56.07 16.17ZM55.55 2.87L55.55 13.31Q56.31 13.45 57.07 13.45Q57.83 13.45 58.71 13.15Q59.59 12.86 60.23 12.22L60.23 12.22Q61.62 10.89 61.62 8.33L61.62 8.33Q61.62 4.14 58.56 3.18L58.56 3.18Q57.55 2.86 56.23 2.86L56.23 2.86L55.91 2.86Q55.73 2.86 55.55 2.87L55.55 2.87ZM71.32 13.07L76.10 13.07Q76.83 13.07 77.11 12.93L77.11 12.93L77.16 12.94L77.04 15.88L68.26 15.88L68.26 0.21Q68.58 0.23 68.96 0.25L68.96 0.25L69.79 0.27Q70.61 0.29 71.57 0.29L71.57 0.29Q74.25 0.29 76.88 0.20L76.88 0.20Q76.75 1.23 76.75 2.95L76.75 2.95Q76.75 3.14 76.77 3.23L76.77 3.23L76.75 3.27Q76.14 3.09 75.01 3.09L75.01 3.09L71.32 3.09L71.32 6.08L74.10 6.08Q75.39 6.08 75.64 6.01L75.64 6.01L75.68 8.91Q75.12 8.85 74.23 8.85L74.23 8.85L71.32 8.85L71.32 13.07Z" transform="translate(51, 6.561)"></path></svg>